<svg id="visual" viewBox="0 0 900 600" width="900" height="600" xmlns="http://www.w3.org/2000/svg" xmlns:xlink="http://www.w3.org/1999/xlink" version="1.1"><g stroke-width="1" stroke-linejoin="bevel"><path d="M472 295L436 325L521 437Z" fill="#b0cbd2" stroke="#b0cbd2"></path><path d="M521 437L592 371L472 295Z" fill="#5d949e" stroke="#5d949e"></path><path d="M436 325L417 437L521 437Z" fill="#edf6f9" stroke="#edf6f9"></path><path d="M592 371L618 262L472 295Z" fill="#006d77" stroke="#006d77"></path><path d="M525 537L573 518L521 437Z" fill="#2d7a84" stroke="#2d7a84"></path><path d="M521 437L665 460L592 371Z" fill="#006d77" stroke="#006d77"></path><path d="M592 371L703 280L618 262Z" fill="#2d7a84" stroke="#2d7a84"></path><path d="M395 169L335 320L436 325Z" fill="#87afb8" stroke="#87afb8"></path><path d="M436 325L335 320L417 437Z" fill="#d9e7ec" stroke="#d9e7ec"></path><path d="M395 169L436 325L472 295Z" fill="#9bbdc5" stroke="#9bbdc5"></path><path d="M417 437L525 537L521 437Z" fill="#edf6f9" stroke="#edf6f9"></path><path d="M618 262L471 190L472 295Z" fill="#72a1ab" stroke="#72a1ab"></path><path d="M665 460L672 413L592 371Z" fill="#006d77" stroke="#006d77"></path><path d="M573 518L665 460L521 437Z" fill="#72a1ab" stroke="#72a1ab"></path><path d="M266 430L375 520L417 437Z" fill="#006d77" stroke="#006d77"></path><path d="M417 437L375 520L525 537Z" fill="#72a1ab" stroke="#72a1ab"></path><path d="M708 176L583 161L618 262Z" fill="#5d949e" stroke="#5d949e"></path><path d="M618 262L583 161L471 190Z" fill="#b0cbd2" stroke="#b0cbd2"></path><path d="M796 404L703 280L672 413Z" fill="#468791" stroke="#468791"></path><path d="M672 413L703 280L592 371Z" fill="#9bbdc5" stroke="#9bbdc5"></path><path d="M501 136L395 169L471 190Z" fill="#c4d9df" stroke="#c4d9df"></path><path d="M471 190L395 169L472 295Z" fill="#edf6f9" stroke="#edf6f9"></path><path d="M583 161L501 136L471 190Z" fill="#b0cbd2" stroke="#b0cbd2"></path><path d="M525 537L603 600L573 518Z" fill="#c4d9df" stroke="#c4d9df"></path><path d="M573 518L665 600L665 460Z" fill="#b0cbd2" stroke="#b0cbd2"></path><path d="M375 520L486 600L525 537Z" fill="#edf6f9" stroke="#edf6f9"></path><path d="M200 382L266 430L335 320Z" fill="#87afb8" stroke="#87afb8"></path><path d="M335 320L266 430L417 437Z" fill="#468791" stroke="#468791"></path><path d="M266 430L321 530L375 520Z" fill="#9bbdc5" stroke="#9bbdc5"></path><path d="M375 520L387 600L486 600Z" fill="#d9e7ec" stroke="#d9e7ec"></path><path d="M395 169L292 216L335 320Z" fill="#87afb8" stroke="#87afb8"></path><path d="M486 600L603 600L525 537Z" fill="#c4d9df" stroke="#c4d9df"></path><path d="M330 600L387 600L375 520Z" fill="#9bbdc5" stroke="#9bbdc5"></path><path d="M703 280L708 176L618 262Z" fill="#2d7a84" stroke="#2d7a84"></path><path d="M583 161L592 94L501 136Z" fill="#c4d9df" stroke="#c4d9df"></path><path d="M708 176L592 94L583 161Z" fill="#2d7a84" stroke="#2d7a84"></path><path d="M501 136L365 87L395 169Z" fill="#b0cbd2" stroke="#b0cbd2"></path><path d="M603 600L665 600L573 518Z" fill="#2d7a84" stroke="#2d7a84"></path><path d="M665 460L796 404L672 413Z" fill="#72a1ab" stroke="#72a1ab"></path><path d="M223 527L330 600L321 530Z" fill="#468791" stroke="#468791"></path><path d="M321 530L330 600L375 520Z" fill="#468791" stroke="#468791"></path><path d="M821 504L796 404L665 460Z" fill="#edf6f9" stroke="#edf6f9"></path><path d="M703 280L764 198L708 176Z" fill="#2d7a84" stroke="#2d7a84"></path><path d="M179 308L200 382L335 320Z" fill="#edf6f9" stroke="#edf6f9"></path><path d="M266 430L223 527L321 530Z" fill="#2d7a84" stroke="#2d7a84"></path><path d="M221 97L225 232L292 216Z" fill="#72a1ab" stroke="#72a1ab"></path><path d="M292 216L225 232L335 320Z" fill="#468791" stroke="#468791"></path><path d="M317 77L292 216L395 169Z" fill="#006d77" stroke="#006d77"></path><path d="M520 0L365 87L501 136Z" fill="#c4d9df" stroke="#c4d9df"></path><path d="M827 273L764 198L703 280Z" fill="#5d949e" stroke="#5d949e"></path><path d="M708 176L732 113L592 94Z" fill="#9bbdc5" stroke="#9bbdc5"></path><path d="M200 382L223 527L266 430Z" fill="#edf6f9" stroke="#edf6f9"></path><path d="M225 232L179 308L335 320Z" fill="#468791" stroke="#468791"></path><path d="M95 515L170 600L223 527Z" fill="#edf6f9" stroke="#edf6f9"></path><path d="M796 404L827 273L703 280Z" fill="#87afb8" stroke="#87afb8"></path><path d="M368 0L317 77L365 87Z" fill="#9bbdc5" stroke="#9bbdc5"></path><path d="M365 87L317 77L395 169Z" fill="#72a1ab" stroke="#72a1ab"></path><path d="M225 232L89 262L179 308Z" fill="#9bbdc5" stroke="#9bbdc5"></path><path d="M788 131L732 113L764 198Z" fill="#9bbdc5" stroke="#9bbdc5"></path><path d="M764 198L732 113L708 176Z" fill="#9bbdc5" stroke="#9bbdc5"></path><path d="M787 600L821 504L665 460Z" fill="#87afb8" stroke="#87afb8"></path><path d="M796 404L900 272L827 273Z" fill="#d9e7ec" stroke="#d9e7ec"></path><path d="M581 0L520 0L592 94Z" fill="#5d949e" stroke="#5d949e"></path><path d="M592 94L520 0L501 136Z" fill="#87afb8" stroke="#87afb8"></path><path d="M900 171L788 131L764 198Z" fill="#d9e7ec" stroke="#d9e7ec"></path><path d="M736 0L581 0L592 94Z" fill="#006d77" stroke="#006d77"></path><path d="M665 600L787 600L665 460Z" fill="#edf6f9" stroke="#edf6f9"></path><path d="M736 0L592 94L732 113Z" fill="#72a1ab" stroke="#72a1ab"></path><path d="M200 0L221 97L317 77Z" fill="#9bbdc5" stroke="#9bbdc5"></path><path d="M317 77L221 97L292 216Z" fill="#72a1ab" stroke="#72a1ab"></path><path d="M520 0L368 0L365 87Z" fill="#5d949e" stroke="#5d949e"></path><path d="M368 0L327 0L317 77Z" fill="#9bbdc5" stroke="#9bbdc5"></path><path d="M95 515L223 527L200 382Z" fill="#9bbdc5" stroke="#9bbdc5"></path><path d="M223 527L170 600L330 600Z" fill="#468791" stroke="#468791"></path><path d="M821 504L900 439L796 404Z" fill="#9bbdc5" stroke="#9bbdc5"></path><path d="M827 273L900 171L764 198Z" fill="#87afb8" stroke="#87afb8"></path><path d="M900 523L900 439L821 504Z" fill="#006d77" stroke="#006d77"></path><path d="M900 439L900 272L796 404Z" fill="#006d77" stroke="#006d77"></path><path d="M78 194L89 262L225 232Z" fill="#2d7a84" stroke="#2d7a84"></path><path d="M179 308L60 427L200 382Z" fill="#006d77" stroke="#006d77"></path><path d="M900 600L900 523L821 504Z" fill="#b0cbd2" stroke="#b0cbd2"></path><path d="M60 427L95 515L200 382Z" fill="#468791" stroke="#468791"></path><path d="M801 0L732 113L788 131Z" fill="#468791" stroke="#468791"></path><path d="M801 0L736 0L732 113Z" fill="#2d7a84" stroke="#2d7a84"></path><path d="M89 262L60 427L179 308Z" fill="#9bbdc5" stroke="#9bbdc5"></path><path d="M900 272L900 171L827 273Z" fill="#006d77" stroke="#006d77"></path><path d="M117 106L78 194L225 232Z" fill="#72a1ab" stroke="#72a1ab"></path><path d="M0 265L0 426L60 427Z" fill="#9bbdc5" stroke="#9bbdc5"></path><path d="M117 106L225 232L221 97Z" fill="#006d77" stroke="#006d77"></path><path d="M0 600L104 600L95 515Z" fill="#edf6f9" stroke="#edf6f9"></path><path d="M95 515L104 600L170 600Z" fill="#c4d9df" stroke="#c4d9df"></path><path d="M138 0L117 106L221 97Z" fill="#d9e7ec" stroke="#d9e7ec"></path><path d="M787 600L900 600L821 504Z" fill="#006d77" stroke="#006d77"></path><path d="M900 171L900 118L788 131Z" fill="#c4d9df" stroke="#c4d9df"></path><path d="M327 0L200 0L317 77Z" fill="#468791" stroke="#468791"></path><path d="M900 118L801 0L788 131Z" fill="#c4d9df" stroke="#c4d9df"></path><path d="M0 265L60 427L89 262Z" fill="#c4d9df" stroke="#c4d9df"></path><path d="M60 427L0 525L95 515Z" fill="#9bbdc5" stroke="#9bbdc5"></path><path d="M0 176L0 265L78 194Z" fill="#87afb8" stroke="#87afb8"></path><path d="M78 194L0 265L89 262Z" fill="#87afb8" stroke="#87afb8"></path><path d="M200 0L138 0L221 97Z" fill="#468791" stroke="#468791"></path><path d="M0 84L0 176L78 194Z" fill="#b0cbd2" stroke="#b0cbd2"></path><path d="M0 426L0 525L60 427Z" fill="#2d7a84" stroke="#2d7a84"></path><path d="M0 84L78 194L117 106Z" fill="#edf6f9" stroke="#edf6f9"></path><path d="M900 118L900 0L801 0Z" fill="#72a1ab" stroke="#72a1ab"></path><path d="M0 525L0 600L95 515Z" fill="#9bbdc5" stroke="#9bbdc5"></path><path d="M0 0L0 84L117 106Z" fill="#72a1ab" stroke="#72a1ab"></path><path d="M138 0L0 0L117 106Z" fill="#b0cbd2" stroke="#b0cbd2"></path></g></svg>