<svg id="visual" viewBox="0 0 3000 1100" width="3000" height="1100" xmlns="http://www.w3.org/2000/svg" xmlns:xlink="http://www.w3.org/1999/xlink" version="1.1"><path d="M0 100L45.5 100C91 100 182 100 272.8 96.3C363.7 92.7 454.3 85.3 545.2 81.7C636 78 727 78 818 89C909 100 1000 122 1091 134.8C1182 147.7 1273 151.3 1363.8 142.2C1454.7 133 1545.3 111 1636.2 98.2C1727 85.3 1818 81.7 1909 96.3C2000 111 2091 144 2182 155C2273 166 2364 155 2454.8 160.5C2545.7 166 2636.3 188 2727.2 182.5C2818 177 2909 144 2954.5 127.5L3000 111L3000 0L2954.5 0C2909 0 2818 0 2727.2 0C2636.3 0 2545.7 0 2454.8 0C2364 0 2273 0 2182 0C2091 0 2000 0 1909 0C1818 0 1727 0 1636.2 0C1545.3 0 1454.7 0 1363.8 0C1273 0 1182 0 1091 0C1000 0 909 0 818 0C727 0 636 0 545.2 0C454.3 0 363.7 0 272.8 0C182 0 91 0 45.5 0L0 0Z" fill="#abd7d1"></path><path d="M0 166L45.5 167.8C91 169.7 182 173.3 272.8 164.2C363.7 155 454.3 133 545.2 129.3C636 125.7 727 140.3 818 162.3C909 184.3 1000 213.7 1091 221C1182 228.3 1273 213.7 1363.8 202.7C1454.7 191.7 1545.3 184.3 1636.2 169.7C1727 155 1818 133 1909 142.2C2000 151.3 2091 191.7 2182 202.7C2273 213.7 2364 195.3 2454.8 206.3C2545.7 217.3 2636.3 257.7 2727.2 255.8C2818 254 2909 210 2954.5 188L3000 166L3000 109L2954.5 125.5C2909 142 2818 175 2727.2 180.5C2636.3 186 2545.7 164 2454.8 158.5C2364 153 2273 164 2182 153C2091 142 2000 109 1909 94.3C1818 79.7 1727 83.3 1636.2 96.2C1545.3 109 1454.7 131 1363.8 140.2C1273 149.3 1182 145.7 1091 132.8C1000 120 909 98 818 87C727 76 636 76 545.2 79.7C454.3 83.3 363.7 90.7 272.8 94.3C182 98 91 98 45.5 98L0 98Z" fill="#a0d2cb"></path><path d="M0 265L45.5 270.5C91 276 182 287 272.8 279.7C363.7 272.3 454.3 246.7 545.2 232C636 217.3 727 213.7 818 233.8C909 254 1000 298 1091 310.8C1182 323.7 1273 305.3 1363.8 288.8C1454.7 272.3 1545.3 257.7 1636.2 239.3C1727 221 1818 199 1909 206.3C2000 213.7 2091 250.3 2182 272.3C2273 294.3 2364 301.7 2454.8 325.5C2545.7 349.3 2636.3 389.7 2727.2 373.2C2818 356.7 2909 283.3 2954.5 246.7L3000 210L3000 164L2954.5 186C2909 208 2818 252 2727.2 253.8C2636.3 255.7 2545.7 215.3 2454.8 204.3C2364 193.3 2273 211.7 2182 200.7C2091 189.7 2000 149.3 1909 140.2C1818 131 1727 153 1636.2 167.7C1545.3 182.3 1454.7 189.7 1363.8 200.7C1273 211.7 1182 226.3 1091 219C1000 211.7 909 182.3 818 160.3C727 138.3 636 123.7 545.2 127.3C454.3 131 363.7 153 272.8 162.2C182 171.3 91 167.7 45.5 165.8L0 164Z" fill="#94cdc6"></path><path d="M0 342L45.5 347.5C91 353 182 364 272.8 356.7C363.7 349.3 454.3 323.7 545.2 318.2C636 312.7 727 327.3 818 345.7C909 364 1000 386 1091 393.3C1182 400.7 1273 393.3 1363.8 380.5C1454.7 367.7 1545.3 349.3 1636.2 334.7C1727 320 1818 309 1909 312.7C2000 316.3 2091 334.7 2182 351.2C2273 367.7 2364 382.3 2454.8 402.5C2545.7 422.7 2636.3 448.3 2727.2 431.8C2818 415.3 2909 356.7 2954.5 327.3L3000 298L3000 208L2954.5 244.7C2909 281.3 2818 354.7 2727.2 371.2C2636.3 387.7 2545.7 347.3 2454.8 323.5C2364 299.7 2273 292.3 2182 270.3C2091 248.3 2000 211.7 1909 204.3C1818 197 1727 219 1636.2 237.3C1545.3 255.7 1454.7 270.3 1363.8 286.8C1273 303.3 1182 321.7 1091 308.8C1000 296 909 252 818 231.8C727 211.7 636 215.3 545.2 230C454.3 244.7 363.7 270.3 272.8 277.7C182 285 91 274 45.5 268.5L0 263Z" fill="#89c8c1"></path><path d="M0 430L45.5 431.8C91 433.7 182 437.3 272.8 444.7C363.7 452 454.3 463 545.2 461.2C636 459.3 727 444.7 818 450.2C909 455.7 1000 481.3 1091 503.3C1182 525.3 1273 543.7 1363.8 543.7C1454.7 543.7 1545.3 525.3 1636.2 505.2C1727 485 1818 463 1909 461.2C2000 459.3 2091 477.7 2182 490.5C2273 503.3 2364 510.7 2454.8 519.8C2545.7 529 2636.3 540 2727.2 525.3C2818 510.7 2909 470.3 2954.5 450.2L3000 430L3000 296L2954.5 325.3C2909 354.7 2818 413.3 2727.2 429.8C2636.3 446.3 2545.7 420.7 2454.8 400.5C2364 380.3 2273 365.7 2182 349.2C2091 332.7 2000 314.3 1909 310.7C1818 307 1727 318 1636.2 332.7C1545.3 347.3 1454.7 365.7 1363.8 378.5C1273 391.3 1182 398.7 1091 391.3C1000 384 909 362 818 343.7C727 325.3 636 310.7 545.2 316.2C454.3 321.7 363.7 347.3 272.8 354.7C182 362 91 351 45.5 345.5L0 340Z" fill="#7ebeb7"></path><path d="M0 595L45.5 631.7C91 668.3 182 741.7 272.8 756.3C363.7 771 454.3 727 545.2 692.2C636 657.3 727 631.7 818 644.5C909 657.3 1000 708.7 1091 739.8C1182 771 1273 782 1363.8 776.5C1454.7 771 1545.3 749 1636.2 741.7C1727 734.3 1818 741.7 1909 736.2C2000 730.7 2091 712.3 2182 705C2273 697.7 2364 701.3 2454.8 721.5C2545.7 741.7 2636.3 778.3 2727.2 761.8C2818 745.3 2909 675.7 2954.5 640.8L3000 606L3000 428L2954.5 448.2C2909 468.3 2818 508.7 2727.2 523.3C2636.3 538 2545.7 527 2454.8 517.8C2364 508.7 2273 501.3 2182 488.5C2091 475.7 2000 457.3 1909 459.2C1818 461 1727 483 1636.2 503.2C1545.3 523.3 1454.7 541.7 1363.8 541.7C1273 541.7 1182 523.3 1091 501.3C1000 479.3 909 453.7 818 448.2C727 442.7 636 457.3 545.2 459.2C454.3 461 363.7 450 272.8 442.7C182 435.3 91 431.7 45.5 429.8L0 428Z" fill="#73afa9"></path><path d="M0 1046L45.5 1038.7C91 1031.3 182 1016.7 272.8 1014.8C363.7 1013 454.3 1024 545.2 1025.8C636 1027.7 727 1020.3 818 1018.5C909 1016.7 1000 1020.3 1091 1024C1182 1027.7 1273 1031.3 1363.8 1029.5C1454.7 1027.7 1545.3 1020.3 1636.2 1020.3C1727 1020.3 1818 1027.7 1909 1029.5C2000 1031.3 2091 1027.7 2182 1029.5C2273 1031.3 2364 1038.7 2454.8 1046C2545.7 1053.3 2636.3 1060.7 2727.2 1058.8C2818 1057 2909 1046 2954.5 1040.5L3000 1035L3000 604L2954.5 638.8C2909 673.7 2818 743.3 2727.2 759.8C2636.3 776.3 2545.7 739.7 2454.8 719.5C2364 699.3 2273 695.7 2182 703C2091 710.3 2000 728.7 1909 734.2C1818 739.7 1727 732.3 1636.2 739.7C1545.3 747 1454.7 769 1363.8 774.5C1273 780 1182 769 1091 737.8C1000 706.7 909 655.3 818 642.5C727 629.7 636 655.3 545.2 690.2C454.3 725 363.7 769 272.8 754.3C182 739.7 91 666.3 45.5 629.7L0 593Z" fill="#68a19b"></path><path d="M0 1101L45.5 1101C91 1101 182 1101 272.8 1101C363.7 1101 454.3 1101 545.2 1101C636 1101 727 1101 818 1101C909 1101 1000 1101 1091 1101C1182 1101 1273 1101 1363.8 1101C1454.7 1101 1545.3 1101 1636.2 1101C1727 1101 1818 1101 1909 1101C2000 1101 2091 1101 2182 1101C2273 1101 2364 1101 2454.8 1101C2545.7 1101 2636.3 1101 2727.2 1101C2818 1101 2909 1101 2954.5 1101L3000 1101L3000 1033L2954.5 1038.5C2909 1044 2818 1055 2727.2 1056.8C2636.3 1058.7 2545.7 1051.3 2454.8 1044C2364 1036.7 2273 1029.3 2182 1027.5C2091 1025.7 2000 1029.3 1909 1027.5C1818 1025.7 1727 1018.3 1636.2 1018.3C1545.3 1018.3 1454.7 1025.7 1363.8 1027.5C1273 1029.3 1182 1025.7 1091 1022C1000 1018.3 909 1014.7 818 1016.5C727 1018.3 636 1025.7 545.2 1023.8C454.3 1022 363.7 1011 272.8 1012.8C182 1014.7 91 1029.3 45.5 1036.7L0 1044Z" fill="#5e938d"></path></svg>